<svg width="46" height="46" viewBox="0 0 46 46" fill="none" xmlns="http://www.w3.org/2000/svg">
<path d="M45.3 14.0501L38.85 7.55008C38.45 7.15008 37.9 6.95008 37.35 7.00008L28.1 7.75008C20.2 1.05008 10.25 -1.54992 2.05 1.20008L1.4 1.40008L1.2 2.05008C-1.55 10.2501 1.05 20.2001 7.8 28.1001L7 37.3501C6.95 37.9001 7.15 38.4501 7.55 38.8501L14 45.3001C14.35 45.6501 14.85 45.8501 15.35 45.8501C15.55 45.8501 15.75 45.8001 16 45.7501C16.7 45.5001 17.2 44.9001 17.3 44.1501L18.25 36.3501C19.9 37.2001 21.6 37.9001 23.35 38.4501L23.55 38.5001C23.9 38.6001 24.3 38.5001 24.55 38.2501L38.3 24.5001C38.55 24.2501 38.65 23.8501 38.55 23.5001L38.5 23.3501C37.95 21.6001 37.25 19.9001 36.4 18.2501L44.2 17.3001C44.95 17.2001 45.55 16.7001 45.8 16.0001C46 15.3001 45.85 14.5501 45.3 14.0501ZM14.75 42.1501L9.75 37.1501L10.3 30.7501C11.95 32.3501 13.75 33.7001 15.6 34.9001L14.75 42.1501ZM23.35 35.6001C19.1 34.1501 15.05 31.6001 11.6 28.2001C4.5 21.1001 1.35 11.3001 3.6 3.60008C11.3 1.35008 21.1 4.50008 28.2 11.6001C31.65 15.0501 34.2 19.1001 35.6 23.3501L23.35 35.6001ZM34.95 15.6501C33.75 13.8001 32.35 12.0001 30.8 10.3501L37.2 9.80008L42.2 14.8001L34.95 15.6501Z" fill="#0067F4"/>
<path d="M15.05 15.0501C13.2 16.9001 13.2 19.9001 15.05 21.8001C16 22.7501 17.2 23.2001 18.4 23.2001C19.6 23.2001 20.85 22.7501 21.75 21.8001C23.6 19.9501 23.6 16.9501 21.75 15.0501C19.9 13.2001 16.9 13.2001 15.05 15.0501ZM19.8 19.8001C19 20.6001 17.75 20.6001 16.95 19.8001C16.15 19.0001 16.15 17.7501 16.95 16.9501C17.35 16.5501 17.85 16.3501 18.35 16.3501C18.85 16.3501 19.4 16.5501 19.75 16.9501C20.6 17.7501 20.6 19.0501 19.8 19.8001Z" fill="#0067F4"/>
<path d="M41 27.6503C40.45 27.1003 39.6 27.1003 39.05 27.6503L27.55 39.1503C27 39.7003 27 40.5503 27.55 41.1003C27.65 41.2003 27.8 41.3003 27.9 41.3503C32.5 44.4003 38.1 45.2003 42.5 43.3503C42.65 43.3003 42.8 43.2003 42.95 43.0503C43.1 42.9003 43.2 42.7503 43.25 42.6003C45.1 38.2003 44.3 32.6003 41.25 28.0003C41.2 27.8503 41.1 27.7503 41 27.6503ZM40.9 41.0003C37.8 42.0503 34.1 41.6503 30.75 39.8503L39.75 30.8503C41.55 34.2003 41.95 37.9003 40.9 41.0003Z" fill="#0067F4"/>
</svg>
