<svg width="48" height="64" viewBox="0 0 48 64" fill="none" xmlns="http://www.w3.org/2000/svg">
<path d="M13.7696 4.99963H6.47599C5.77186 4.99963 5.20111 5.57038 5.20111 6.27451V13.5681C5.20111 14.2723 5.77186 14.843 6.47599 14.843H13.7696C14.4737 14.843 15.0445 14.2723 15.0445 13.5681V6.27451C15.0445 5.57038 14.4737 4.99963 13.7696 4.99963ZM12.4946 12.2933H7.75086V7.54951H12.4946V12.2933Z" fill="#3182CE"/>
<path d="M26.8273 4.99963H19.5337C18.8296 4.99963 18.2589 5.57038 18.2589 6.27451V13.5681C18.2589 14.2723 18.8296 14.843 19.5337 14.843H26.8273C27.5315 14.843 28.1022 14.2723 28.1022 13.5681V6.27451C28.1022 5.57038 27.5315 4.99963 26.8273 4.99963ZM25.5525 12.2933H20.8087V7.54951H25.5525V12.2933Z" fill="#3182CE"/>
<path d="M13.7696 17.9398H6.47599C5.77186 17.9398 5.20111 18.5105 5.20111 19.2146V26.5083C5.20111 27.2124 5.77186 27.7831 6.47599 27.7831H13.7696C14.4737 27.7831 15.0445 27.2124 15.0445 26.5083V19.2146C15.0445 18.5105 14.4737 17.9398 13.7696 17.9398ZM12.4946 25.2334H7.75086V20.4896H12.4946V25.2334Z" fill="#3182CE"/>
<path d="M26.8273 17.9398H19.5337C18.8296 17.9398 18.2589 18.5105 18.2589 19.2146V26.5083C18.2589 27.2124 18.8296 27.7831 19.5337 27.7831H26.8273C27.5315 27.7831 28.1022 27.2124 28.1022 26.5083V19.2146C28.1022 18.5105 27.5315 17.9398 26.8273 17.9398ZM25.5525 25.2334H20.8087V20.4896H25.5525V25.2334Z" fill="#3182CE"/>
<path d="M13.7695 30.8801H6.47586C5.77174 30.8801 5.20099 31.4509 5.20099 32.155V39.4485C5.20099 40.1526 5.77174 40.7234 6.47586 40.7234H13.7695C14.4736 40.7234 15.0444 40.1526 15.0444 39.4485V32.155C15.0444 31.4509 14.4736 30.8801 13.7695 30.8801ZM12.4946 38.1735H7.75086V33.4299H12.4946V38.1735Z" fill="#3182CE"/>
<path d="M26.8273 30.8801H19.5337C18.8296 30.8801 18.2589 31.4509 18.2589 32.155V39.4485C18.2589 40.1526 18.8296 40.7234 19.5337 40.7234H26.8273C27.5315 40.7234 28.1022 40.1526 28.1022 39.4485V32.155C28.1022 31.4509 27.5315 30.8801 26.8273 30.8801ZM25.5525 38.1735H20.8087V33.4299H25.5525V38.1735Z" fill="#3182CE"/>
<path d="M16.6516 48.1727C15.9475 48.1727 15.3768 48.7435 15.3768 49.4476V49.5652C15.3768 50.2694 15.9475 50.8401 16.6516 50.8401C17.3558 50.8401 17.9265 50.2694 17.9265 49.5652V49.4476C17.9265 48.7436 17.3558 48.1727 16.6516 48.1727Z" fill="#3182CE"/>
<path d="M47.6016 61.8236L41.1983 55.4201C42.1825 54.0137 42.7621 52.3046 42.7621 50.4616C42.7621 45.6805 38.8724 41.7907 34.0913 41.7907C33.817 41.7907 33.5462 41.805 33.2783 41.8301V1.27488C33.2784 0.57075 32.7077 0 32.0035 0H1.2999C0.595775 0 0.0250244 0.57075 0.0250244 1.27488V57.8589C0.0250244 58.563 0.595775 59.1338 1.2999 59.1338H34.3267C34.3813 59.1338 34.4347 59.1291 34.4875 59.1225C36.3542 59.0381 38.0675 58.36 39.4462 57.2739L45.7987 63.6265C46.0477 63.8755 46.3739 63.9999 46.7001 63.9999C47.0264 63.9999 47.3528 63.8754 47.6016 63.6265C48.0995 63.1287 48.0995 62.3215 47.6016 61.8236ZM21.3763 56.584H17.9265V53.0945C17.9265 52.3904 17.3558 51.8196 16.6516 51.8196C15.9475 51.8196 15.3768 52.3904 15.3768 53.0945V56.584H11.927V46.9582H21.3763V56.584ZM23.9261 56.5839V45.6833C23.9261 44.9791 23.3554 44.4084 22.6513 44.4084H10.6521C9.94802 44.4084 9.37728 44.9791 9.37728 45.6833V56.5839H2.57477V2.54975H30.7285V42.4699C27.6128 43.7859 25.4206 46.8725 25.4206 50.4618C25.4206 52.8493 26.3908 55.0144 27.9573 56.584H23.9261V56.5839ZM34.0914 56.5827C30.7163 56.5827 27.9704 53.8369 27.9704 50.4618C27.9704 47.0866 30.7163 44.3408 34.0914 44.3408C37.4665 44.3408 40.2124 47.0866 40.2124 50.4618C40.2124 53.8369 37.4665 56.5827 34.0914 56.5827Z" fill="#3182CE"/>
</svg>
