<svg width="20" height="18" viewBox="0 0 20 18" fill="none" xmlns="http://www.w3.org/2000/svg">
<path d="M0.775022 17.1752C0.550022 16.9502 0.437522 16.6877 0.437522 16.3877C0.437522 16.0877 0.550022 15.8252 0.775022 15.6002L7.41252 8.9627L0.737522 2.3252C0.512522 2.1002 0.406272 1.84394 0.418772 1.55644C0.431272 1.26894 0.550022 1.0127 0.775022 0.787695C1.00002 0.562695 1.26252 0.450195 1.56252 0.450195C1.86252 0.450195 2.12502 0.562695 2.35002 0.787695L9.73752 8.17519C9.86252 8.30019 9.95002 8.42519 10 8.55019C10.05 8.67519 10.075 8.8127 10.075 8.9627C10.075 9.1127 10.05 9.25644 10 9.39394C9.95002 9.53144 9.86252 9.66269 9.73752 9.78769L2.31252 17.2127C2.08752 17.4377 1.83127 17.5439 1.54377 17.5314C1.25627 17.5189 1.00002 17.4002 0.775022 17.1752ZM10.2625 17.1752C10.0375 16.9502 9.92502 16.6877 9.92502 16.3877C9.92502 16.0877 10.0375 15.8252 10.2625 15.6002L16.9 8.9627L10.225 2.3252C10 2.1002 9.89377 1.84394 9.90627 1.55644C9.91877 1.26894 10.0375 1.0127 10.2625 0.787695C10.4875 0.562695 10.75 0.450195 11.05 0.450195C11.35 0.450195 11.6125 0.562695 11.8375 0.787695L19.225 8.17519C19.35 8.30019 19.4375 8.42519 19.4875 8.55019C19.5375 8.67519 19.5625 8.8127 19.5625 8.9627C19.5625 9.1127 19.5375 9.25644 19.4875 9.39394C19.4375 9.53144 19.35 9.66269 19.225 9.78769L11.8 17.2127C11.575 17.4377 11.3188 17.5439 11.0313 17.5314C10.7438 17.5189 10.4875 17.4002 10.2625 17.1752Z" fill="#3182CE"/>
</svg>
