<svg width="14" height="14" viewBox="0 0 14 14" fill="none" xmlns="http://www.w3.org/2000/svg">
<path d="M12.012 0.316986H1.98802C1.04402 0.316986 0.317017 1.04399 0.317017 1.98799V12.012C0.317017 12.955 1.04402 13.683 1.98802 13.683H12.012C12.955 13.683 13.683 12.955 13.683 12.012V1.98799C13.683 1.04399 12.955 0.316986 12.012 0.316986ZM7.01002 4.37499C8.49202 4.37499 9.69402 5.53899 9.69402 6.97499C9.69402 8.41099 8.49302 9.57499 7.01002 9.57499C5.52902 9.57499 4.32702 8.40999 4.32702 6.97499C4.32702 5.53899 5.52902 4.37499 7.01002 4.37499ZM12.012 11.594C12.012 11.887 11.887 12.012 11.594 12.012H2.40502C2.11302 12.012 1.98702 11.887 1.98702 11.594V5.74699L3.02802 5.97299C2.91602 6.33599 2.85602 6.72099 2.85602 7.11999C2.85602 9.34099 4.71602 11.144 7.00902 11.144C9.30302 11.144 11.162 9.34199 11.162 7.11999C11.162 6.72099 11.101 6.33699 10.99 5.97299L12.011 5.74699V11.594H12.012ZM12.012 4.07599C12.012 4.30699 11.825 4.49399 11.594 4.49399H9.92302C9.69202 4.49399 9.50502 4.30699 9.50502 4.07599V2.40499C9.50502 2.17399 9.69202 1.98699 9.92302 1.98699H11.594C11.825 1.98699 12.012 2.17399 12.012 2.40499V4.07599Z" fill="white"/>
</svg>
