<svg width="14" height="14" viewBox="0 0 14 14" fill="none" xmlns="http://www.w3.org/2000/svg">
<path d="M13.774 13.474V8.464C13.774 5.78 12.341 4.531 10.431 4.531C8.88901 4.531 8.19901 5.379 7.81401 5.974V4.736H4.91001C4.94801 5.556 4.91001 13.473 4.91001 13.473H7.81401V8.593C7.81401 8.333 7.83301 8.072 7.91001 7.885C8.12001 7.363 8.59701 6.823 9.39901 6.823C10.45 6.823 10.87 7.624 10.87 8.798V13.473L13.774 13.474ZM1.85001 3.545C2.86201 3.545 3.49301 2.873 3.49301 2.035C3.47401 1.178 2.86201 0.526001 1.86901 0.526001C0.876014 0.526001 0.226013 1.178 0.226013 2.035C0.226013 2.874 0.856014 3.545 1.83101 3.545H1.85001ZM3.30201 13.474V4.737H0.398013V13.474H3.30201Z" fill="white"/>
</svg>
