<svg width="58" height="64" viewBox="0 0 58 64" fill="none" xmlns="http://www.w3.org/2000/svg">
<path d="M7.20709 12.0417L27.6056 23.5809C27.8183 23.7012 28.0517 23.7595 28.2828 23.7595C28.6716 23.7595 29.0545 23.595 29.3237 23.2846L45.5729 4.54487L46.0634 7.77697C46.1668 8.45875 46.7537 8.94736 47.423 8.94736C47.4917 8.94736 47.5613 8.94213 47.6313 8.93153C48.383 8.8174 48.9 8.11552 48.7858 7.3638L47.8456 1.17013C47.7881 0.79055 47.5747 0.452415 47.2569 0.237088C46.9392 0.021761 46.5458 -0.0512078 46.1722 0.0359418L40.0857 1.45402C39.3452 1.62652 38.8848 2.36668 39.0573 3.10724C39.2298 3.84781 39.9695 4.3082 40.7105 4.13569L42.6815 3.67654L27.981 20.6298L8.5628 9.64497C7.90085 9.27035 7.06074 9.50358 6.68667 10.1654C6.31219 10.8272 6.54528 11.6672 7.20709 12.0417Z" fill="#3182CE"/>
<path d="M2.47611 57.8197H16.3818C17.1422 57.8197 17.7585 57.2033 17.7585 56.4429V26.5713C17.7585 25.8109 17.1422 25.1945 16.3818 25.1945H2.47611C1.71572 25.1945 1.09933 25.8109 1.09933 26.5713V56.4429C1.09933 57.2033 1.71572 57.8197 2.47611 57.8197ZM3.85288 27.948H15.005V55.0661H3.85288V27.948Z" fill="#3182CE"/>
<path d="M40.2415 15.7556V56.4429C40.2415 57.2033 40.8579 57.8197 41.6182 57.8197H54.4939C55.2543 57.8197 55.8707 57.2033 55.8707 56.4429V15.7556C55.8707 14.9953 55.2543 14.3789 54.4939 14.3789H41.6182C40.858 14.3789 40.2415 14.9953 40.2415 15.7556ZM42.995 17.1324H53.1172V55.0662H42.995V17.1324Z" fill="#3182CE"/>
<path d="M22.5622 38.0702C21.8018 38.0702 21.1854 38.6866 21.1854 39.447V56.4429C21.1854 57.2033 21.8018 57.8197 22.5622 57.8197H35.4379C36.1983 57.8197 36.8147 57.2033 36.8147 56.4429V39.447C36.8147 38.6866 36.1983 38.0702 35.4379 38.0702H22.5622ZM34.0611 55.0661H23.939V40.8237H34.0611V55.0661Z" fill="#3182CE"/>
<path d="M56.5541 61.2465H1.446C0.685609 61.2465 0.0692291 61.8628 0.0692291 62.6232C0.0692291 63.3836 0.685609 64 1.446 64H56.5541C57.3145 64 57.9309 63.3836 57.9309 62.6232C57.9309 61.8628 57.3145 61.2465 56.5541 61.2465Z" fill="#3182CE"/>
</svg>
