<svg width="38" height="64" viewBox="0 0 38 64" fill="none" xmlns="http://www.w3.org/2000/svg">
<path d="M37.2226 0.581089C37.0164 0.22161 36.6338 0 36.2194 0H12.3771C11.8809 0 11.4398 0.316607 11.2811 0.786815L1.06302 31.0625C0.943968 31.4155 1.00226 31.8043 1.2194 32.1069C1.43669 32.4094 1.78645 32.589 2.15904 32.589H11.8457L0.697066 62.4387C0.499977 62.9664 0.711871 63.5596 1.19889 63.843C1.38086 63.9488 1.58135 64 1.78013 64C2.11324 64 2.44126 63.8563 2.6678 63.5856L33.7006 26.498C33.9888 26.1535 34.0516 25.6733 33.8614 25.2663C33.6714 24.8593 33.2627 24.5991 32.8135 24.5991H23.8544L37.2179 1.74049C37.4271 1.38271 37.4289 0.940569 37.2226 0.581089ZM20.8396 25.1717C20.6305 25.5295 20.6287 25.9717 20.835 26.3311C21.0412 26.6906 21.4238 26.9122 21.8382 26.9122H30.3372L5.22672 56.9225L14.596 31.837C14.7286 31.482 14.6788 31.0844 14.4626 30.7729C14.2466 30.4615 13.8916 30.2757 13.5125 30.2757H3.77015L13.2074 2.31325H34.2033L20.8396 25.1717Z" fill="#3182CE"/>
</svg>
