<svg width="15" height="12" viewBox="0 0 15 12" fill="none" xmlns="http://www.w3.org/2000/svg">
<path d="M9.04898 0.261003C7.76598 0.728003 6.95598 1.932 7.04798 3.249L7.07898 3.757L6.56598 3.695C4.69798 3.456 3.06598 2.647 1.68098 1.288L1.00398 0.614003L0.829977 1.112C0.460977 2.222 0.696977 3.395 1.46598 4.184C1.87598 4.62 1.78398 4.682 1.07598 4.423C0.829977 4.34 0.613977 4.278 0.593977 4.309C0.521977 4.382 0.767977 5.326 0.962977 5.7C1.22998 6.219 1.77398 6.727 2.36898 7.028L2.87198 7.267L2.27698 7.277C1.70198 7.277 1.68198 7.287 1.74398 7.506C1.94898 8.18 2.75998 8.897 3.66298 9.208L4.29898 9.425L3.74498 9.757C2.92398 10.235 1.95898 10.504 0.993978 10.525C0.531978 10.535 0.151978 10.577 0.151978 10.608C0.151978 10.711 1.40398 11.292 2.13298 11.521C4.31898 12.195 6.91598 11.905 8.86598 10.753C10.252 9.933 11.637 8.304 12.284 6.726C12.633 5.886 12.982 4.35 12.982 3.614C12.982 3.136 13.013 3.074 13.587 2.504C13.926 2.172 14.244 1.809 14.306 1.705C14.409 1.508 14.398 1.508 13.875 1.684C13.003 1.996 12.879 1.954 13.311 1.487C13.629 1.155 14.009 0.553003 14.009 0.377003C14.009 0.346003 13.855 0.398003 13.68 0.491003C13.495 0.595003 13.085 0.751003 12.777 0.844003L12.223 1.021L11.72 0.678003C11.443 0.491003 11.053 0.284003 10.848 0.222003C10.322 0.0740031 9.52198 0.0950027 9.04898 0.261003Z" fill="white"/>
</svg>
