<svg width="24" height="14" viewBox="0 0 24 14" fill="none" xmlns="http://www.w3.org/2000/svg">
<path d="M22.9001 13.3001C22.5667 13.5668 22.2001 13.7084 21.8001 13.7251C21.4001 13.7418 21.0501 13.6001 20.7501 13.3001L11.9501 4.50009L3.10007 13.3501C2.8334 13.6168 2.47507 13.7418 2.02507 13.7251C1.57507 13.7084 1.21673 13.5668 0.950067 13.3001C0.616733 12.9668 0.458401 12.6084 0.475067 12.2251C0.491734 11.8418 0.650067 11.5001 0.950067 11.2001L10.9001 1.25009C11.0667 1.08342 11.2334 0.966757 11.4001 0.900091C11.5667 0.833424 11.7501 0.80009 11.9501 0.80009C12.1501 0.80009 12.3334 0.833424 12.5001 0.900091C12.6667 0.966757 12.8334 1.08342 13.0001 1.25009L22.9001 11.1501C23.2001 11.4501 23.3417 11.8001 23.3251 12.2001C23.3084 12.6001 23.1667 12.9668 22.9001 13.3001Z" fill="white"/>
</svg>
